<mxfile host="app.diagrams.net" agent="Mozilla/5.0 (Macintosh; Intel Mac OS X 10_15_7) AppleWebKit/537.36 (KHTML, like Gecko) Chrome/129.0.0.0 Safari/537.36" version="24.8.3">
  <diagram name="Page-1" id="cE6jks0V9PPwxfKco-L-">
    <mxGraphModel dx="1590" dy="848" grid="1" gridSize="10" guides="1" tooltips="1" connect="1" arrows="1" fold="1" page="1" pageScale="1" pageWidth="827" pageHeight="1169" math="0" shadow="0">
      <root>
        <mxCell id="0" />
        <mxCell id="1" parent="0" />
        <mxCell id="iwblh37Kuf--L7qHFjce-6" style="edgeStyle=orthogonalEdgeStyle;rounded=0;orthogonalLoop=1;jettySize=auto;html=1;exitX=0.5;exitY=0.5;exitDx=0;exitDy=0;exitPerimeter=0;entryX=0;entryY=0.5;entryDx=0;entryDy=0;" edge="1" parent="1" source="iwblh37Kuf--L7qHFjce-1" target="iwblh37Kuf--L7qHFjce-5">
          <mxGeometry relative="1" as="geometry" />
        </mxCell>
        <mxCell id="iwblh37Kuf--L7qHFjce-1" value="New User" style="shape=umlActor;verticalLabelPosition=bottom;verticalAlign=top;html=1;outlineConnect=0;" vertex="1" parent="1">
          <mxGeometry x="230" y="240" width="30" height="60" as="geometry" />
        </mxCell>
        <mxCell id="iwblh37Kuf--L7qHFjce-5" value="Register" style="ellipse;whiteSpace=wrap;html=1;" vertex="1" parent="1">
          <mxGeometry x="420" y="240" width="90" height="60" as="geometry" />
        </mxCell>
        <mxCell id="iwblh37Kuf--L7qHFjce-8" value="Keycloak" style="shape=umlActor;verticalLabelPosition=bottom;verticalAlign=top;html=1;outlineConnect=0;" vertex="1" parent="1">
          <mxGeometry x="700" y="240" width="30" height="60" as="geometry" />
        </mxCell>
        <mxCell id="iwblh37Kuf--L7qHFjce-9" style="edgeStyle=orthogonalEdgeStyle;rounded=0;orthogonalLoop=1;jettySize=auto;html=1;exitX=1;exitY=0.5;exitDx=0;exitDy=0;" edge="1" parent="1" source="iwblh37Kuf--L7qHFjce-5" target="iwblh37Kuf--L7qHFjce-8">
          <mxGeometry relative="1" as="geometry">
            <mxPoint x="255" y="280" as="sourcePoint" />
            <mxPoint x="410" y="280" as="targetPoint" />
          </mxGeometry>
        </mxCell>
        <mxCell id="iwblh37Kuf--L7qHFjce-10" value="Registered User" style="shape=umlActor;verticalLabelPosition=bottom;verticalAlign=top;html=1;outlineConnect=0;" vertex="1" parent="1">
          <mxGeometry x="230" y="370" width="30" height="60" as="geometry" />
        </mxCell>
        <mxCell id="iwblh37Kuf--L7qHFjce-13" value="Organisation" style="ellipse;whiteSpace=wrap;html=1;" vertex="1" parent="1">
          <mxGeometry x="420" y="370" width="90" height="60" as="geometry" />
        </mxCell>
        <mxCell id="iwblh37Kuf--L7qHFjce-14" value="" style="endArrow=classic;html=1;rounded=0;exitX=0.5;exitY=0.5;exitDx=0;exitDy=0;exitPerimeter=0;entryX=0;entryY=0.5;entryDx=0;entryDy=0;" edge="1" parent="1" source="iwblh37Kuf--L7qHFjce-10" target="iwblh37Kuf--L7qHFjce-13">
          <mxGeometry width="50" height="50" relative="1" as="geometry">
            <mxPoint x="450" y="370" as="sourcePoint" />
            <mxPoint x="500" y="320" as="targetPoint" />
          </mxGeometry>
        </mxCell>
        <mxCell id="iwblh37Kuf--L7qHFjce-15" value="" style="endArrow=classic;html=1;rounded=0;exitX=1;exitY=0.5;exitDx=0;exitDy=0;" edge="1" parent="1" source="iwblh37Kuf--L7qHFjce-13" target="iwblh37Kuf--L7qHFjce-8">
          <mxGeometry width="50" height="50" relative="1" as="geometry">
            <mxPoint x="450" y="370" as="sourcePoint" />
            <mxPoint x="700" y="270" as="targetPoint" />
          </mxGeometry>
        </mxCell>
        <mxCell id="iwblh37Kuf--L7qHFjce-16" style="edgeStyle=orthogonalEdgeStyle;rounded=0;orthogonalLoop=1;jettySize=auto;html=1;exitX=0.5;exitY=0.5;exitDx=0;exitDy=0;exitPerimeter=0;entryX=0;entryY=0.5;entryDx=0;entryDy=0;" edge="1" parent="1" source="iwblh37Kuf--L7qHFjce-17" target="iwblh37Kuf--L7qHFjce-18">
          <mxGeometry relative="1" as="geometry" />
        </mxCell>
        <mxCell id="iwblh37Kuf--L7qHFjce-17" value="truzztbox mini user" style="shape=umlActor;verticalLabelPosition=bottom;verticalAlign=top;html=1;outlineConnect=0;" vertex="1" parent="1">
          <mxGeometry x="100" y="600" width="30" height="60" as="geometry" />
        </mxCell>
        <mxCell id="iwblh37Kuf--L7qHFjce-18" value="nextcloud" style="ellipse;whiteSpace=wrap;html=1;" vertex="1" parent="1">
          <mxGeometry x="430" y="600" width="90" height="60" as="geometry" />
        </mxCell>
        <mxCell id="iwblh37Kuf--L7qHFjce-21" value="truzztbox pro user" style="shape=umlActor;verticalLabelPosition=bottom;verticalAlign=top;html=1;outlineConnect=0;" vertex="1" parent="1">
          <mxGeometry x="110" y="760" width="30" height="60" as="geometry" />
        </mxCell>
        <mxCell id="iwblh37Kuf--L7qHFjce-22" value="matrix" style="ellipse;whiteSpace=wrap;html=1;" vertex="1" parent="1">
          <mxGeometry x="430" y="730" width="90" height="60" as="geometry" />
        </mxCell>
        <mxCell id="iwblh37Kuf--L7qHFjce-23" value="" style="endArrow=classic;html=1;rounded=0;exitX=0.5;exitY=0.5;exitDx=0;exitDy=0;exitPerimeter=0;entryX=0;entryY=0.5;entryDx=0;entryDy=0;" edge="1" parent="1" source="iwblh37Kuf--L7qHFjce-21" target="iwblh37Kuf--L7qHFjce-22">
          <mxGeometry width="50" height="50" relative="1" as="geometry">
            <mxPoint x="460" y="730" as="sourcePoint" />
            <mxPoint x="510" y="680" as="targetPoint" />
          </mxGeometry>
        </mxCell>
        <mxCell id="iwblh37Kuf--L7qHFjce-25" value="profile page" style="ellipse;whiteSpace=wrap;html=1;" vertex="1" parent="1">
          <mxGeometry x="430" y="500" width="90" height="60" as="geometry" />
        </mxCell>
        <mxCell id="iwblh37Kuf--L7qHFjce-27" value="group/organisation page" style="ellipse;whiteSpace=wrap;html=1;" vertex="1" parent="1">
          <mxGeometry x="430" y="840" width="90" height="60" as="geometry" />
        </mxCell>
        <mxCell id="iwblh37Kuf--L7qHFjce-28" value="" style="endArrow=classic;html=1;rounded=0;exitX=0.5;exitY=0.5;exitDx=0;exitDy=0;exitPerimeter=0;entryX=0;entryY=0.5;entryDx=0;entryDy=0;" edge="1" parent="1" source="iwblh37Kuf--L7qHFjce-17" target="iwblh37Kuf--L7qHFjce-25">
          <mxGeometry width="50" height="50" relative="1" as="geometry">
            <mxPoint x="480" y="710" as="sourcePoint" />
            <mxPoint x="530" y="660" as="targetPoint" />
          </mxGeometry>
        </mxCell>
        <mxCell id="iwblh37Kuf--L7qHFjce-29" value="" style="endArrow=classic;html=1;rounded=0;entryX=0;entryY=0.5;entryDx=0;entryDy=0;exitX=0.5;exitY=0.5;exitDx=0;exitDy=0;exitPerimeter=0;" edge="1" parent="1" source="iwblh37Kuf--L7qHFjce-21" target="iwblh37Kuf--L7qHFjce-25">
          <mxGeometry width="50" height="50" relative="1" as="geometry">
            <mxPoint x="260" y="760" as="sourcePoint" />
            <mxPoint x="530" y="660" as="targetPoint" />
          </mxGeometry>
        </mxCell>
        <mxCell id="iwblh37Kuf--L7qHFjce-30" value="caas" style="ellipse;whiteSpace=wrap;html=1;" vertex="1" parent="1">
          <mxGeometry x="430" y="940" width="90" height="60" as="geometry" />
        </mxCell>
        <mxCell id="iwblh37Kuf--L7qHFjce-31" value="" style="endArrow=classic;html=1;rounded=0;entryX=0;entryY=0.5;entryDx=0;entryDy=0;exitX=0.5;exitY=0.5;exitDx=0;exitDy=0;exitPerimeter=0;" edge="1" parent="1" source="iwblh37Kuf--L7qHFjce-21" target="iwblh37Kuf--L7qHFjce-27">
          <mxGeometry width="50" height="50" relative="1" as="geometry">
            <mxPoint x="480" y="890" as="sourcePoint" />
            <mxPoint x="530" y="840" as="targetPoint" />
          </mxGeometry>
        </mxCell>
        <mxCell id="iwblh37Kuf--L7qHFjce-32" value="" style="endArrow=classic;html=1;rounded=0;entryX=0;entryY=0.5;entryDx=0;entryDy=0;exitX=0.5;exitY=0.5;exitDx=0;exitDy=0;exitPerimeter=0;" edge="1" parent="1" source="iwblh37Kuf--L7qHFjce-17" target="iwblh37Kuf--L7qHFjce-22">
          <mxGeometry width="50" height="50" relative="1" as="geometry">
            <mxPoint x="540" y="880" as="sourcePoint" />
            <mxPoint x="590" y="830" as="targetPoint" />
          </mxGeometry>
        </mxCell>
        <mxCell id="iwblh37Kuf--L7qHFjce-33" value="" style="endArrow=classic;html=1;rounded=0;entryX=0;entryY=0.5;entryDx=0;entryDy=0;exitX=0.5;exitY=0.5;exitDx=0;exitDy=0;exitPerimeter=0;" edge="1" parent="1" source="iwblh37Kuf--L7qHFjce-17" target="iwblh37Kuf--L7qHFjce-27">
          <mxGeometry width="50" height="50" relative="1" as="geometry">
            <mxPoint x="260" y="630" as="sourcePoint" />
            <mxPoint x="530" y="730" as="targetPoint" />
          </mxGeometry>
        </mxCell>
        <mxCell id="iwblh37Kuf--L7qHFjce-34" value="" style="endArrow=classic;html=1;rounded=0;entryX=0;entryY=0.5;entryDx=0;entryDy=0;exitX=0.5;exitY=0.5;exitDx=0;exitDy=0;exitPerimeter=0;" edge="1" parent="1" source="iwblh37Kuf--L7qHFjce-21" target="iwblh37Kuf--L7qHFjce-18">
          <mxGeometry width="50" height="50" relative="1" as="geometry">
            <mxPoint x="260" y="760" as="sourcePoint" />
            <mxPoint x="500" y="730" as="targetPoint" />
          </mxGeometry>
        </mxCell>
        <mxCell id="iwblh37Kuf--L7qHFjce-36" value="" style="endArrow=classic;html=1;rounded=0;entryX=0;entryY=0.5;entryDx=0;entryDy=0;exitX=0.5;exitY=0.5;exitDx=0;exitDy=0;exitPerimeter=0;" edge="1" parent="1" source="iwblh37Kuf--L7qHFjce-21" target="iwblh37Kuf--L7qHFjce-30">
          <mxGeometry width="50" height="50" relative="1" as="geometry">
            <mxPoint x="190" y="760" as="sourcePoint" />
            <mxPoint x="530" y="720" as="targetPoint" />
          </mxGeometry>
        </mxCell>
      </root>
    </mxGraphModel>
  </diagram>
</mxfile>
